<?xml version="1.0" standalone="no"?>
<!DOCTYPE svg PUBLIC "-//W3C//DTD SVG 20010904//EN"
 "http://www.w3.org/TR/2001/REC-SVG-20010904/DTD/svg10.dtd">
<svg version="1.0" xmlns="http://www.w3.org/2000/svg"
 width="1536.000000pt" height="1024.000000pt" viewBox="0 0 1536.000000 1024.000000"
 preserveAspectRatio="xMidYMid meet">

<g transform="translate(0.000000,1024.000000) scale(0.100000,-0.100000)"
fill="#000000" stroke="none">
<path d="M2912 6847 c-6 -6 -14 -26 -18 -42 -7 -30 -170 -492 -218 -618 -54
-141 -216 -556 -253 -645 l-38 -94 -112 -34 c-580 -175 -954 -429 -1063 -721
-81 -217 22 -414 225 -431 212 -17 448 151 665 473 119 176 230 383 320 592
25 60 19 57 215 102 264 60 617 123 771 137 73 7 77 6 70 -12 -155 -396 -348
-930 -411 -1137 -32 -107 -31 -132 8 -132 27 0 29 4 111 245 120 351 197 563
363 991 l25 66 82 7 c216 17 440 24 536 16 109 -10 130 -5 130 30 0 40 -23 44
-243 44 -117 1 -271 -3 -344 -7 l-132 -9 89 219 c48 120 127 313 175 428 184
446 206 504 195 525 -12 22 -45 27 -57 8 -4 -7 -23 -49 -41 -93 -60 -144 -359
-877 -404 -990 l-44 -110 -65 -7 c-132 -15 -368 -51 -494 -74 -126 -24 -436
-91 -464 -100 -8 -2 -11 1 -8 8 95 226 279 709 392 1028 110 310 111 316 95
335 -15 18 -44 20 -58 2z m-572 -1505 c0 -4 -40 -88 -89 -187 -246 -494 -493
-768 -738 -817 -100 -20 -192 21 -234 104 -18 35 -21 54 -17 120 12 209 205
417 543 586 128 64 197 93 370 153 143 49 165 55 165 41z"/>
<path d="M9515 6796 c-43 -19 -68 -50 -60 -75 8 -25 47 -28 65 -6 18 22 49 15
71 -15 66 -91 66 -378 -1 -635 -169 -649 -666 -1467 -995 -1638 -162 -83 -248
41 -231 333 8 149 21 227 113 687 65 322 75 386 65 407 -18 41 -53 34 -107
-21 -46 -45 -195 -222 -265 -313 -210 -274 -519 -611 -624 -681 -76 -51 -110
-52 -126 -4 -39 120 181 598 567 1229 46 76 88 148 93 160 17 46 -30 75 -62
39 -41 -48 -318 -517 -429 -727 -79 -150 -91 -166 -216 -301 -262 -284 -451
-420 -582 -420 -76 1 -115 25 -149 95 -24 50 -27 66 -27 161 l1 106 39 46 c22
25 81 92 131 149 168 190 349 427 462 605 89 138 203 364 237 465 85 259 -60
357 -266 179 -196 -169 -481 -703 -603 -1131 -15 -52 -29 -101 -32 -109 -3 -9
-18 -1 -47 27 -57 52 -102 66 -191 59 -147 -10 -280 -108 -398 -292 -80 -124
-264 -277 -351 -292 -57 -9 -84 2 -97 41 -12 39 -8 70 26 201 13 50 24 116 24
149 0 53 -3 61 -35 93 -32 32 -40 35 -79 31 -95 -11 -232 -107 -352 -247 -37
-44 -70 -78 -72 -76 -3 3 0 10 5 17 23 28 124 280 121 301 -2 15 -11 23 -30
25 -24 3 -30 -3 -57 -61 -25 -52 -54 -87 -151 -181 -192 -184 -324 -283 -413
-307 -54 -14 -87 7 -87 57 0 49 51 199 106 310 50 103 50 129 1 121 -25 -3
-37 2 -62 28 -65 70 -177 71 -315 3 -155 -75 -310 -262 -346 -415 -18 -78 1
-145 47 -168 92 -48 222 13 438 209 47 41 86 74 88 72 2 -1 -4 -22 -12 -46
-23 -66 -20 -160 8 -201 31 -47 92 -59 168 -35 89 29 230 129 372 265 l58 56
-19 -45 c-11 -25 -43 -96 -71 -159 -55 -123 -58 -151 -13 -150 22 0 38 15 82
77 71 98 241 293 311 356 88 79 149 116 191 116 56 0 58 -26 18 -186 -49 -198
-34 -286 57 -320 78 -30 171 2 295 102 37 30 70 54 73 54 4 0 4 -9 0 -20 -10
-32 15 -102 50 -137 30 -30 38 -33 92 -33 41 1 77 9 121 28 79 34 222 135 317
224 40 37 76 68 79 68 3 0 6 -29 6 -64 0 -178 95 -296 238 -296 148 0 316 103
546 334 54 56 96 92 91 81 -82 -208 -95 -342 -39 -398 117 -117 334 65 853
713 157 195 222 272 228 266 3 -2 -16 -100 -42 -218 -108 -494 -129 -640 -123
-845 4 -121 9 -158 26 -204 36 -92 99 -139 187 -139 328 0 926 874 1150 1680
59 213 78 411 56 564 -25 169 -107 262 -196 222z m-2085 -175 c16 -30 12 -56
-21 -155 -88 -264 -327 -634 -658 -1021 -47 -55 -87 -102 -88 -104 -30 -44 54
232 122 399 147 360 312 647 460 796 96 96 162 127 185 85z m-974 -1246 c35
-17 57 -37 72 -64 37 -65 32 -77 -74 -176 -349 -327 -565 -377 -488 -114 43
148 176 299 312 355 73 30 116 30 178 -1z m-2075 -26 c11 -5 26 -21 35 -34 16
-24 15 -27 -31 -80 -57 -67 -231 -230 -305 -285 -196 -147 -283 -108 -192 85
68 142 237 293 366 326 35 9 100 3 127 -12z"/>
<path d="M11567 6243 c-13 -21 -64 -108 -113 -194 l-89 -156 -60 -7 c-33 -3
-143 -11 -245 -17 -102 -6 -193 -15 -202 -20 -21 -11 -24 -42 -5 -57 9 -8 75
-7 232 4 120 8 221 13 224 12 4 -2 -36 -86 -89 -186 -91 -177 -99 -188 -203
-298 -311 -328 -607 -514 -671 -422 -9 12 -16 35 -16 50 0 50 49 182 125 336
41 85 75 160 75 168 0 16 -30 33 -47 27 -7 -2 -28 -26 -47 -52 -40 -57 -96
-81 -185 -81 -47 0 -65 6 -116 38 -52 32 -68 37 -120 37 -91 0 -141 -29 -268
-156 l-107 -109 34 68 c18 37 50 109 70 159 30 74 35 97 26 113 -11 21 -27 25
-46 12 -6 -4 -50 -92 -96 -197 -47 -104 -118 -263 -158 -352 -61 -136 -71
-165 -60 -178 28 -34 56 -18 101 58 124 209 325 441 422 486 68 33 105 30 178
-15 55 -34 69 -38 128 -39 36 0 80 3 98 7 l31 7 -33 -72 c-59 -129 -77 -195
-73 -269 4 -82 27 -117 87 -138 37 -13 48 -13 109 3 118 31 287 147 481 332
52 49 91 81 86 70 -4 -11 -26 -72 -48 -135 -33 -94 -40 -130 -41 -195 -1 -68
3 -86 22 -118 30 -48 68 -67 131 -67 111 0 250 81 422 247 l112 108 -9 -40
c-21 -96 0 -178 54 -207 97 -51 304 49 544 263 42 38 78 69 81 69 3 0 -26 -70
-64 -156 -55 -125 -67 -159 -59 -175 21 -38 45 -20 146 108 189 242 388 423
467 423 51 0 54 -32 18 -172 -61 -241 -30 -338 108 -338 59 0 144 41 236 113
l60 47 8 -33 c13 -53 28 -75 62 -92 99 -46 233 22 418 214 98 101 94 107 48
-77 l-27 -105 -92 -56 c-234 -142 -560 -401 -787 -627 -208 -206 -362 -411
-449 -595 -59 -124 -80 -205 -79 -305 2 -218 152 -297 372 -194 375 176 819
843 1063 1599 l43 133 99 50 c139 70 292 119 391 125 84 6 105 14 105 43 0 61
-240 28 -440 -60 -127 -56 -134 -58 -126 -34 13 43 80 381 80 408 1 19 -6 32
-19 40 -11 6 -32 19 -46 28 -77 50 -169 44 -292 -20 -81 -42 -210 -163 -252
-237 -74 -130 -287 -295 -382 -295 -70 0 -78 61 -33 237 35 135 37 186 10 230
-23 38 -79 58 -126 44 -90 -26 -222 -126 -328 -250 -39 -45 -71 -81 -73 -81
-2 0 1 9 8 21 32 61 119 275 119 295 0 52 -62 43 -80 -12 -30 -90 -377 -396
-548 -483 -24 -12 -66 -25 -94 -28 -42 -5 -53 -3 -64 12 -36 49 -8 149 108
379 82 164 92 206 49 206 -29 0 -44 -19 -107 -137 -52 -98 -70 -120 -203 -254
-160 -161 -240 -224 -346 -275 -85 -42 -126 -44 -162 -8 -24 24 -25 30 -20 97
10 133 108 373 297 730 l103 195 161 7 c89 4 267 6 396 4 l235 -4 0 29 c0 24
-5 31 -30 38 -45 13 -432 20 -582 11 -73 -4 -133 -7 -133 -6 0 6 100 182 140
248 23 38 43 83 44 100 1 26 -3 30 -26 33 -22 3 -31 -4 -51 -35z m2223 -851
c21 -17 21 -19 6 -55 -24 -58 -94 -143 -203 -247 -183 -175 -303 -217 -303
-106 0 136 184 353 348 412 54 19 126 17 152 -4z m-115 -629 c-17 -70 -124
-343 -191 -490 -262 -570 -604 -999 -880 -1102 -216 -81 -287 103 -155 400
124 280 465 656 892 985 87 67 326 232 338 234 2 0 0 -12 -4 -27z"/>
<path d="M10594 5802 c-16 -11 -32 -44 -43 -90 -11 -50 3 -76 40 -70 44 6 88
125 57 156 -13 13 -37 15 -54 4z"/>
<path d="M11921 5749 c-25 -27 -43 -97 -30 -121 12 -23 51 -23 71 0 23 25 41
89 34 118 -8 31 -47 33 -75 3z"/>
</g>
</svg>
