<?xml version="1.0" standalone="no"?>
<!DOCTYPE svg PUBLIC "-//W3C//DTD SVG 20010904//EN"
 "http://www.w3.org/TR/2001/REC-SVG-20010904/DTD/svg10.dtd">
<svg version="1.0" xmlns="http://www.w3.org/2000/svg"
 width="1536.000000pt" height="1024.000000pt" viewBox="0 0 1536.000000 1024.000000"
 preserveAspectRatio="xMidYMid meet">

<g transform="translate(0.000000,1024.000000) scale(0.100000,-0.100000)"
fill="#000000" stroke="none">
<path d="M2761 6757 c-6 -8 -20 -66 -31 -130 -47 -271 -168 -717 -321 -1183
l-59 -181 -133 -42 c-553 -179 -915 -415 -1045 -681 -35 -72 -37 -80 -37 -180
0 -90 3 -111 22 -147 66 -123 221 -191 377 -165 250 41 467 249 656 627 72
146 189 422 206 489 3 14 14 30 23 35 27 15 335 90 516 126 197 39 485 88 490
83 2 -2 -12 -51 -31 -108 -84 -252 -166 -528 -207 -695 -90 -365 -105 -555
-41 -555 31 0 43 30 43 105 0 139 52 380 160 740 79 264 160 507 174 522 8 8
100 18 254 29 193 14 265 16 360 7 73 -6 125 -7 136 -1 26 13 17 50 -15 66
-46 22 -284 26 -502 8 -109 -9 -201 -15 -203 -13 -6 6 71 220 229 642 225 597
210 553 198 576 -14 26 -46 24 -64 -3 -15 -25 -319 -834 -407 -1085 -47 -134
-56 -153 -76 -153 -75 0 -618 -105 -850 -164 -93 -23 -133 -30 -133 -22 0 7
11 46 25 87 88 255 244 802 299 1046 51 225 62 299 46 318 -15 19 -44 19 -59
2z m-512 -1758 c-208 -519 -428 -797 -685 -864 -74 -19 -114 -19 -185 1 -108
30 -169 107 -171 213 -3 237 272 494 737 689 133 55 359 132 363 123 1 -4 -25
-77 -59 -162z"/>
<path d="M9848 6511 c-223 -73 -439 -373 -675 -936 -55 -130 -143 -357 -163
-418 -10 -32 -35 -56 -149 -145 -149 -116 -300 -237 -423 -339 -43 -36 -78
-61 -78 -56 0 4 27 98 60 208 62 208 71 259 45 269 -27 10 -44 -5 -137 -123
-187 -237 -340 -386 -453 -442 -53 -26 -65 -28 -92 -19 -40 15 -58 55 -50 120
9 71 61 219 118 334 27 55 49 108 49 118 0 23 -31 39 -53 27 -20 -12 -98 -162
-134 -259 -36 -96 -155 -209 -298 -283 -51 -27 -71 -31 -135 -32 -62 0 -80 4
-107 23 -49 35 -86 119 -91 211 l-4 76 88 77 c287 248 600 695 691 986 32 103
38 238 13 286 -55 106 -195 88 -328 -43 -68 -67 -157 -184 -221 -291 -103
-174 -227 -475 -271 -660 l-23 -96 -46 24 c-69 35 -172 29 -263 -16 -76 -37
-197 -144 -234 -208 -26 -45 -138 -150 -234 -221 -162 -120 -287 -133 -322
-36 -9 26 -13 96 -13 223 0 189 -3 207 -43 253 -27 31 -84 39 -139 21 -90 -31
-227 -146 -325 -275 -29 -37 -54 -67 -55 -65 -2 2 28 81 67 176 39 96 68 182
65 191 -7 22 -32 31 -53 20 -9 -5 -44 -78 -77 -161 l-59 -152 -115 -105 c-256
-232 -428 -304 -506 -212 -14 17 -28 42 -31 56 -12 46 4 176 32 268 15 50 28
106 28 125 1 31 -2 35 -26 38 -18 2 -29 11 -36 30 -46 128 -248 141 -421 26
-126 -84 -272 -271 -308 -394 -34 -117 -13 -207 57 -242 112 -57 275 25 494
247 65 66 116 111 113 100 -3 -11 -9 -51 -12 -90 -12 -125 22 -213 98 -256 55
-31 158 -24 247 16 70 32 194 120 272 193 26 24 48 42 48 39 0 -3 -20 -58 -45
-122 -25 -65 -43 -125 -40 -135 12 -39 63 -31 86 13 27 51 146 236 185 287
114 149 230 262 310 300 48 24 64 25 90 6 17 -13 19 -31 24 -223 5 -206 5
-209 33 -255 36 -62 75 -82 153 -82 76 0 163 39 273 122 l77 58 1 -66 c0 -78
20 -122 66 -150 66 -40 193 -16 300 57 23 15 90 74 148 131 l107 103 12 -58
c38 -182 151 -272 309 -245 81 14 187 66 268 132 34 27 63 50 65 50 2 0 4 -25
4 -55 4 -143 116 -191 269 -116 71 35 212 163 335 302 47 53 86 96 88 94 3 -2
-105 -356 -110 -360 -114 -90 -426 -386 -569 -541 -261 -283 -414 -518 -470
-719 -28 -102 -25 -229 7 -271 39 -53 70 -69 137 -69 275 0 601 498 902 1375
l67 195 141 116 c211 173 489 390 494 386 2 -3 -2 -21 -10 -40 -61 -144 -190
-650 -191 -747 -1 -59 1 -65 21 -68 27 -4 53 32 53 73 0 93 143 600 266 947
296 830 600 1298 847 1301 150 3 239 -144 288 -478 16 -107 19 -691 5 -1095
-12 -355 5 -475 76 -535 41 -34 93 -33 145 3 47 32 81 70 151 170 l51 73 7
-35 c10 -56 56 -111 108 -131 92 -35 206 -6 299 76 48 41 113 137 139 204 15
37 18 40 87 57 133 32 286 122 414 241 27 24 45 37 42 28 -146 -378 -164 -613
-52 -693 41 -29 127 -35 200 -14 80 23 219 121 346 241 l108 105 7 -41 c13
-79 67 -153 141 -192 55 -29 203 -35 300 -13 208 48 416 164 645 360 64 54 65
55 77 33 6 -13 43 -51 82 -86 39 -34 71 -66 71 -69 -1 -4 -35 -23 -77 -42 -93
-42 -203 -118 -236 -162 -14 -18 -28 -50 -32 -70 -6 -33 -3 -41 22 -67 114
-114 398 -13 447 160 13 43 14 66 7 100 -5 24 -9 44 -8 45 8 7 255 77 339 96
80 17 135 23 243 23 133 0 143 -1 191 -27 43 -23 54 -25 69 -14 29 21 15 58
-32 84 -130 71 -407 47 -760 -66 l-91 -29 -85 82 c-51 49 -89 94 -93 110 -16
64 69 157 180 195 97 35 196 20 196 -29 0 -37 37 -52 64 -25 24 24 19 60 -13
97 -40 45 -93 61 -176 54 -128 -10 -282 -112 -320 -211 -12 -30 -40 -63 -102
-116 -322 -282 -650 -415 -859 -349 -57 18 -114 95 -114 155 0 19 5 24 24 24
37 0 154 39 226 75 201 101 309 251 256 354 -25 47 -63 66 -136 66 -148 0
-307 -125 -401 -316 -57 -114 -328 -366 -475 -442 -93 -48 -181 -41 -211 16
-61 119 50 497 296 1007 l41 85 53 7 c95 12 690 20 792 10 111 -10 135 -4 135
34 0 45 -26 48 -420 48 -201 1 -399 -3 -442 -7 l-76 -8 82 178 c46 98 100 211
120 251 54 107 57 116 40 140 -9 13 -21 18 -34 15 -23 -6 -55 -67 -209 -394
l-92 -196 -99 -7 c-116 -7 -493 -49 -664 -74 -98 -14 -121 -21 -132 -38 -12
-17 -12 -23 0 -39 13 -18 19 -18 107 -6 240 32 306 41 440 55 79 8 181 18 227
22 l83 7 -44 -94 c-24 -52 -54 -115 -66 -140 -12 -25 -61 -88 -109 -139 -142
-153 -283 -254 -417 -300 -84 -29 -83 -30 -82 48 1 115 -40 198 -117 233 -74
33 -152 18 -211 -42 -16 -17 -49 -44 -72 -60 -56 -38 -101 -100 -168 -234 -70
-140 -181 -310 -234 -358 -47 -43 -84 -48 -105 -14 -34 53 -39 132 -30 452 15
527 11 1001 -10 1130 -46 290 -113 432 -233 498 -67 36 -141 42 -215 18z
m-2064 -334 c33 -24 39 -91 15 -186 -66 -264 -280 -603 -572 -907 -61 -63
-119 -120 -130 -125 -18 -10 -19 -8 -12 33 43 276 184 644 342 891 60 92 154
205 205 244 79 61 119 74 152 50z m-3285 -1073 c42 -9 77 -47 84 -91 8 -48 -8
-72 -143 -215 -108 -114 -236 -218 -310 -250 -51 -23 -113 -27 -134 -9 -64 53
17 260 159 406 75 76 139 119 220 147 55 19 77 21 124 12z m8359 -26 c7 -7 12
-26 12 -44 0 -92 -238 -265 -388 -282 l-43 -5 25 56 c71 161 219 287 337 287
25 0 50 -5 57 -12z m-5894 -23 c32 -21 40 -47 37 -114 -2 -53 -5 -58 -84 -149
-130 -149 -270 -253 -364 -268 -33 -5 -44 -2 -69 19 -26 23 -29 31 -28 85 3
154 172 372 335 433 62 22 133 20 173 -6z m4144 -12 c47 -29 75 -137 56 -210
-12 -44 -118 -21 -176 37 -32 32 -38 44 -38 79 0 100 77 145 158 94z m-228
-144 c22 -82 130 -159 221 -159 29 0 31 -2 24 -27 -22 -90 -148 -213 -237
-233 -77 -18 -121 2 -150 67 -19 44 -20 54 -9 118 6 39 24 97 40 130 26 56 85
145 96 145 2 0 9 -18 15 -41z m2846 -345 c16 -63 -42 -150 -124 -186 -77 -34
-202 -33 -202 2 0 6 18 30 40 54 28 30 76 62 151 100 60 31 114 56 119 56 5 0
13 -12 16 -26z m-5602 -385 c-132 -364 -274 -666 -410 -869 -82 -124 -219
-268 -286 -299 -65 -31 -124 -26 -152 12 -17 23 -21 42 -20 95 2 211 181 508
520 861 136 141 404 395 411 388 2 -3 -26 -87 -63 -188z"/>
</g>
</svg>
