<?xml version="1.0" standalone="no"?>
<!DOCTYPE svg PUBLIC "-//W3C//DTD SVG 20010904//EN"
 "http://www.w3.org/TR/2001/REC-SVG-20010904/DTD/svg10.dtd">
<svg version="1.0" xmlns="http://www.w3.org/2000/svg"
 width="1122.000000pt" height="1402.000000pt" viewBox="0 0 1122.000000 1402.000000"
 preserveAspectRatio="xMidYMid meet">

<g transform="translate(0.000000,1402.000000) scale(0.100000,-0.100000)"
fill="#000000" stroke="none">
<path d="M4999 11989 c-178 -19 -290 -61 -361 -136 -51 -55 -66 -93 -75 -195
l-6 -67 -64 69 c-86 93 -166 134 -274 139 -116 5 -236 -35 -307 -103 -74 -69
-82 -137 -27 -242 19 -37 35 -69 35 -71 0 -2 -13 3 -29 11 -16 9 -47 18 -69
22 -51 8 -85 -21 -80 -68 3 -30 2 -31 -67 -50 -95 -26 -256 -105 -337 -167
-38 -29 -98 -87 -134 -131 -63 -77 -70 -82 -190 -139 -203 -97 -348 -206 -440
-327 -57 -76 -72 -120 -50 -142 30 -30 165 15 424 141 39 19 72 33 72 30 0 -4
-27 -46 -61 -95 -116 -170 -212 -405 -263 -643 -73 -346 -56 -637 45 -802 l20
-32 -52 -40 c-62 -50 -161 -106 -223 -127 -64 -22 -63 -47 5 -69 76 -26 213
-17 299 19 36 15 69 28 74 29 5 1 14 -29 21 -68 16 -88 44 -151 100 -230 53
-74 107 -120 228 -192 110 -66 142 -94 172 -153 30 -60 71 -240 85 -374 14
-132 58 -313 96 -391 60 -122 162 -201 247 -193 23 3 49 8 57 12 13 5 22 -17
49 -121 95 -362 194 -570 381 -801 28 -35 55 -74 60 -86 18 -48 97 -491 119
-666 14 -108 32 -402 26 -408 -3 -3 -16 6 -29 21 -13 14 -40 30 -59 35 -114
32 -252 -82 -448 -369 -139 -204 -234 -332 -298 -402 -77 -84 -214 -195 -322
-262 -82 -51 -344 -186 -464 -240 -163 -73 -414 -201 -480 -246 -80 -53 -174
-140 -195 -179 -9 -16 -8 -22 5 -26 11 -5 28 7 53 36 65 77 186 156 385 254
106 52 293 143 417 204 295 144 439 239 585 387 105 105 168 187 392 510 88
126 214 258 266 280 43 18 90 19 119 4 74 -40 89 -308 24 -462 -19 -46 -32
-47 -40 -4 -7 35 -32 77 -46 77 -16 0 -72 -53 -97 -93 -65 -102 -89 -272 -59
-402 35 -146 104 -255 309 -485 191 -216 277 -338 330 -472 71 -177 60 -261
-53 -393 -120 -140 -160 -317 -99 -436 37 -74 95 -96 164 -63 61 29 136 116
435 509 367 480 633 747 1035 1039 481 348 585 408 585 336 0 -24 -23 -72 -56
-115 -41 -54 -74 -137 -74 -188 0 -41 3 -49 25 -59 36 -16 78 5 150 77 160
158 268 385 316 666 38 219 17 473 -51 626 -16 37 -20 67 -20 165 0 189 27
224 135 174 45 -20 99 -68 268 -234 243 -238 359 -338 507 -434 179 -117 271
-159 735 -338 192 -74 281 -125 363 -207 40 -40 76 -73 81 -73 49 0 -48 123
-148 188 -81 52 -194 102 -423 188 -112 41 -270 109 -353 149 -262 128 -394
229 -729 555 -269 262 -330 300 -415 256 -40 -21 -54 -60 -60 -171 l-6 -100
-57 97 c-96 160 -150 318 -185 542 -35 223 -19 683 32 925 13 62 75 421 75
435 0 3 16 -2 35 -10 136 -57 313 40 419 229 47 83 120 304 147 443 21 108 22
112 50 118 42 8 134 106 173 184 62 122 68 159 75 462 7 320 10 333 107 415
30 26 64 66 76 89 41 79 19 226 -52 351 l-29 51 25 79 c45 139 44 336 -3 474
-25 74 -78 174 -133 250 -136 187 -427 397 -660 476 l-64 22 -1 59 c-2 154
-146 314 -391 437 -161 81 -441 158 -630 174 l-79 6 -47 52 c-26 28 -73 65
-105 82 -204 108 -620 167 -944 132z m511 -55 c223 -32 427 -103 493 -172 l28
-29 -123 -6 c-385 -20 -669 -135 -893 -361 -49 -51 -111 -123 -136 -161 -58
-87 -138 -246 -173 -344 -15 -41 -29 -78 -32 -83 -12 -20 -169 107 -329 267
-172 172 -234 220 -256 198 -6 -6 -9 -22 -5 -36 9 -39 130 -162 235 -240 161
-119 373 -259 381 -250 4 4 19 46 34 93 36 112 111 268 175 363 210 312 544
487 962 504 l146 6 -5 -31 c-3 -24 1 -34 22 -48 47 -30 85 1 77 64 -5 36 386
-44 562 -115 183 -74 341 -181 417 -281 43 -58 60 -105 60 -168 l0 -41 -49 -6
c-67 -8 -105 -30 -121 -67 -12 -28 -11 -33 11 -56 21 -22 30 -25 69 -21 34 4
51 13 76 39 17 19 33 40 35 47 10 29 229 -71 389 -177 251 -166 408 -365 466
-588 34 -131 30 -284 -11 -412 l-26 -83 30 -54 c71 -125 92 -266 50 -334 -11
-18 -34 -45 -52 -60 -54 -45 -79 -74 -101 -121 -19 -41 -21 -70 -27 -320 -7
-306 -18 -372 -82 -479 -29 -48 -119 -141 -136 -141 -4 0 -12 43 -19 97 -13
112 -41 176 -92 211 -94 63 -205 -15 -244 -173 -8 -33 -20 -111 -25 -173 -17
-181 -23 -193 -156 -309 -27 -24 -49 -43 -50 -43 0 0 0 161 0 358 -1 386 -10
509 -50 647 -70 241 -171 370 -465 595 -80 61 -182 148 -228 193 -100 98 -205
247 -174 247 5 0 17 -11 26 -25 19 -28 44 -33 53 -10 11 31 -70 92 -107 80
-32 -10 -25 -62 18 -135 52 -91 228 -264 407 -402 164 -126 270 -228 318 -304
141 -227 174 -433 164 -1029 -3 -170 -7 -319 -9 -330 -6 -40 26 -19 56 37 19
35 63 88 113 135 96 91 107 120 123 299 13 147 40 232 89 284 113 119 218 -41
190 -288 -12 -105 -21 -147 -65 -296 -72 -245 -166 -385 -299 -447 -48 -22
-149 -25 -185 -4 -34 19 -47 18 -59 -4 -6 -10 -26 -110 -45 -222 -44 -254 -72
-351 -145 -504 -110 -228 -277 -452 -497 -665 -337 -326 -590 -440 -954 -427
-351 12 -551 130 -884 522 -188 221 -309 394 -376 538 -45 97 -86 223 -170
522 -68 240 -84 285 -99 285 -16 0 -13 -24 13 -125 13 -49 22 -95 19 -102 -3
-7 -16 -16 -29 -19 -100 -25 -212 88 -273 276 -20 63 -51 237 -51 292 l0 26
34 -34 c19 -19 42 -34 53 -34 31 0 93 -59 144 -137 26 -40 49 -79 52 -86 3 -9
9 -8 21 4 16 15 15 23 -18 130 -40 132 -80 323 -97 461 -18 155 -7 480 21 598
33 139 31 288 -5 440 -53 218 -35 394 52 512 54 74 108 112 259 183 166 79
247 131 293 191 112 147 75 285 -143 523 -79 87 -105 125 -93 137 10 10 138
-40 285 -112 84 -41 164 -74 179 -74 36 0 63 27 63 64 0 26 -14 44 -80 108
-68 66 -98 87 -202 138 -68 32 -163 72 -213 87 -83 25 -103 27 -270 28 -161 0
-188 -2 -260 -24 -172 -51 -323 -138 -459 -266 -33 -30 -66 -55 -75 -55 -9 0
-88 -34 -176 -76 -161 -77 -302 -130 -313 -119 -15 15 88 142 176 216 86 72
159 117 298 184 109 52 136 70 164 106 137 180 290 272 600 361 57 16 70 50
19 46 -25 -2 -34 1 -37 15 -5 25 26 33 62 13 46 -25 133 -36 147 -20 8 10 4
23 -19 51 -72 91 -97 179 -67 230 43 74 193 137 310 131 88 -4 146 -32 227
-106 84 -78 124 -141 158 -253 30 -97 81 -184 103 -176 7 2 12 24 12 54 -1 49
-8 66 -80 202 -27 49 -30 64 -29 145 0 212 100 290 419 326 103 11 351 4 485
-16z m564 -293 c-9 -10 -26 18 -18 30 5 9 9 8 14 -7 4 -10 6 -21 4 -23z
m-1810 -560 c22 -22 37 -43 35 -46 -7 -7 -129 104 -129 117 0 13 47 -22 94
-71z m2866 -71 c0 -20 -49 -60 -73 -60 -32 0 -52 23 -34 38 32 27 107 42 107
22z m-3035 -114 c103 -31 251 -99 322 -147 109 -75 186 -169 138 -169 -8 0
-86 34 -172 76 -239 114 -308 134 -336 93 -27 -38 -6 -75 116 -209 147 -160
195 -265 167 -366 -19 -69 -109 -157 -210 -206 -41 -20 -120 -58 -174 -84
-169 -81 -256 -187 -292 -354 -20 -94 -14 -192 22 -360 34 -158 35 -274 5
-425 -56 -283 -41 -618 42 -943 l23 -93 -51 51 c-30 30 -66 55 -88 61 -58 16
-95 73 -134 208 -19 64 -41 130 -49 147 -26 55 -96 117 -199 178 -131 78 -205
154 -256 260 -25 52 -41 104 -46 146 l-8 65 95 95 c53 52 119 126 147 164 131
178 231 391 203 436 -8 12 -16 11 -54 -7 -68 -33 -169 -126 -342 -313 -86 -94
-162 -169 -167 -167 -21 7 -76 133 -89 202 -32 179 -5 487 66 730 143 492 449
840 821 933 115 29 126 31 275 27 112 -2 151 -7 225 -29z m-780 -1448 c-13
-43 -94 -198 -137 -261 -85 -127 -238 -299 -238 -269 0 7 -9 12 -19 12 -13 0
-24 -12 -33 -36 -15 -41 -69 -74 -165 -99 -59 -16 -193 -21 -193 -7 0 4 30 22
67 41 126 66 222 151 468 415 118 127 227 226 248 226 5 0 5 -10 2 -22z m3553
-2878 c-20 -296 11 -598 82 -817 34 -106 73 -185 159 -328 58 -95 61 -103 61
-165 0 -74 -22 -210 -46 -285 -27 -82 -91 -197 -149 -268 -30 -36 -103 -107
-162 -157 -199 -169 -234 -202 -269 -255 -43 -65 -48 -104 -16 -121 22 -11 15
-18 -147 -134 -237 -171 -428 -329 -596 -494 -192 -191 -321 -344 -644 -768
-272 -357 -344 -410 -401 -292 -19 39 -22 58 -18 133 5 106 31 166 113 261 84
97 100 137 99 245 -1 72 -6 104 -28 160 -54 140 -156 293 -315 471 -185 208
-232 269 -280 369 -72 147 -87 243 -56 374 16 68 65 169 95 196 18 16 19 15
25 -22 15 -92 43 -113 86 -65 59 65 82 215 82 517 0 277 -26 515 -93 856 -17
83 -30 154 -30 157 0 3 17 -14 37 -39 81 -97 253 -265 333 -326 231 -176 512
-236 833 -177 260 47 474 178 762 468 212 213 360 413 452 608 20 43 38 76 40
75 1 -2 -3 -81 -9 -177z m373 -1437 c23 -111 17 -385 -10 -511 -60 -277 -195
-525 -345 -634 -49 -35 -56 -35 -56 2 0 35 34 111 90 199 48 77 54 130 18 155
-12 9 -32 16 -43 16 -31 0 -111 -41 -204 -104 -69 -47 -89 -56 -113 -51 -15 4
-28 12 -28 19 0 29 73 110 170 191 237 195 316 279 388 415 47 86 87 215 97
312 4 37 11 66 15 63 4 -3 14 -35 21 -72z"/>
<path d="M6905 10634 c-186 -80 -379 -93 -770 -50 -375 42 -496 49 -699 43
-160 -5 -207 -10 -291 -31 -109 -28 -206 -71 -249 -111 -15 -14 -29 -25 -31
-25 -3 0 -27 14 -53 30 -81 50 -119 35 -110 -43 6 -47 56 -159 75 -165 7 -2
25 16 42 40 17 24 36 51 43 61 12 17 19 15 108 -33 269 -144 506 -217 786
-240 206 -17 381 4 649 79 39 11 123 29 185 41 63 11 131 25 150 31 78 26 157
74 211 130 31 33 63 59 71 59 23 0 244 -155 343 -241 98 -84 213 -200 292
-294 65 -77 153 -205 153 -222 0 -39 -140 -124 -246 -149 -101 -24 -297 -14
-423 20 -199 55 -322 123 -481 265 -120 106 -174 141 -192 123 -27 -27 32
-114 116 -172 40 -27 202 -114 321 -173 162 -80 328 -119 505 -118 179 0 287
37 395 134 66 59 66 66 3 161 -162 240 -494 555 -718 679 l-59 32 6 61 c6 69
0 109 -19 116 -7 3 -58 -14 -113 -38z m95 -46 c0 -112 -117 -241 -256 -283
-27 -8 -101 -24 -164 -35 -63 -10 -140 -26 -170 -35 -216 -60 -286 -74 -405
-84 -302 -24 -619 42 -929 193 -72 35 -140 71 -151 80 -20 16 -20 16 10 41 46
38 159 81 265 102 112 21 488 24 655 5 393 -45 494 -53 640 -53 190 0 309 21
419 75 39 19 74 35 79 35 4 1 7 -18 7 -41z m-2204 -143 l43 -25 -22 -35 c-12
-19 -26 -34 -30 -35 -9 0 -47 85 -47 106 0 19 7 18 56 -11z m1829 -636 l20
-23 -30 18 c-38 23 -85 67 -85 79 0 11 67 -41 95 -74z"/>
<path d="M5860 8909 c-123 -19 -205 -70 -247 -156 -26 -54 -26 -56 -8 -69 29
-21 154 -17 316 11 309 53 454 52 636 -1 48 -15 97 -27 107 -28 63 -4 -16 89
-118 139 -158 78 -506 131 -686 104z m320 -50 c122 -13 268 -51 348 -90 35
-17 61 -33 59 -36 -3 -2 -31 3 -63 11 -93 24 -242 38 -334 30 -47 -3 -159 -19
-250 -35 -180 -32 -300 -38 -300 -16 0 27 70 95 119 116 93 39 194 44 421 20z"/>
<path d="M4375 8819 c-165 -20 -274 -68 -370 -164 -70 -70 -116 -148 -98 -166
9 -9 21 -4 51 20 63 49 199 109 292 127 87 17 132 17 518 -2 126 -7 132 -6
132 12 0 39 -74 125 -135 157 -34 17 -61 21 -175 23 -74 1 -171 -2 -215 -7z
m371 -52 c33 -17 94 -75 94 -90 0 -5 -50 -5 -117 0 -65 4 -194 8 -288 8 -187
0 -247 -11 -364 -66 -35 -16 -66 -28 -68 -25 -2 2 21 26 51 54 86 78 194 116
381 136 92 9 280 -1 311 -17z"/>
<path d="M5874 8510 c-33 -11 -79 -32 -102 -48 -44 -29 -122 -124 -122 -147 0
-31 23 -24 73 20 47 43 141 105 160 105 4 0 7 -9 7 -20 0 -39 32 -100 64 -119
49 -30 88 -34 135 -15 49 20 81 61 88 115 7 48 4 48 157 -27 117 -58 136 -63
136 -36 0 19 -91 83 -178 127 -129 63 -301 82 -418 45z m264 -93 c3 -30 -2
-43 -27 -67 -66 -66 -181 -19 -181 74 0 31 13 34 120 33 l85 -2 3 -38z"/>
<path d="M4564 8460 c-105 -15 -200 -59 -336 -153 -82 -56 -101 -78 -79 -91
12 -8 99 39 190 102 41 29 78 52 83 52 4 0 8 -15 8 -32 0 -93 114 -157 199
-113 52 26 81 71 81 125 l0 48 48 -12 c121 -33 189 -95 224 -208 20 -64 23
-92 22 -233 -1 -142 -5 -181 -38 -341 -20 -99 -36 -206 -36 -238 0 -51 4 -61
30 -88 30 -29 33 -30 98 -25 37 3 81 9 99 13 24 4 39 1 62 -15 33 -24 71 -28
71 -7 0 7 -33 34 -72 60 -89 56 -127 60 -168 16 -33 -36 -44 -37 -64 -8 -23
33 -20 97 13 254 44 207 55 308 48 441 -7 137 -23 204 -69 280 -75 125 -249
198 -414 173z m107 -82 c4 -79 -38 -128 -111 -128 -45 0 -90 47 -90 94 0 29 4
37 23 40 12 3 31 7 42 9 11 3 46 5 78 6 52 1 57 -1 58 -21z m459 -1078 c-20
-13 -53 -13 -45 0 3 6 18 10 33 10 21 0 24 -2 12 -10z"/>
<path d="M5484 7357 c-12 -7 -43 -31 -69 -55 -44 -39 -47 -44 -33 -58 14 -15
19 -13 55 20 l39 35 47 -14 c51 -15 95 -8 111 19 9 14 6 22 -17 42 -31 27 -96
32 -133 11z m99 -38 c-4 -4 -21 -5 -36 -2 -17 3 -24 9 -17 13 15 9 64 0 53
-11z"/>
<path d="M5950 6832 c-53 -26 -60 -27 -235 -27 -174 -1 -182 -2 -242 -28 -73
-31 -100 -33 -204 -10 -61 13 -87 14 -126 5 -26 -5 -82 -18 -123 -27 -73 -16
-128 -13 -217 11 -18 5 -23 2 -23 -14 0 -49 156 -61 309 -22 86 21 99 22 155
10 121 -26 170 -24 233 6 57 26 63 27 248 28 187 1 191 2 253 30 44 20 62 34
60 45 -5 24 -28 22 -88 -7z"/>
<path d="M5572 6584 c-100 -44 -247 -52 -371 -20 -43 11 -53 11 -63 -1 -17
-21 -1 -30 84 -47 95 -20 172 -20 259 -2 82 18 171 55 166 70 -5 16 -38 17
-75 0z"/>
</g>
</svg>
