<?xml version="1.0" standalone="no"?>
<!DOCTYPE svg PUBLIC "-//W3C//DTD SVG 20010904//EN"
 "http://www.w3.org/TR/2001/REC-SVG-20010904/DTD/svg10.dtd">
<svg version="1.0" xmlns="http://www.w3.org/2000/svg"
 width="1254.000000pt" height="1254.000000pt" viewBox="0 0 1254.000000 1254.000000"
 preserveAspectRatio="xMidYMid meet">

<g transform="translate(0.000000,1254.000000) scale(0.100000,-0.100000)"
fill="#000000" stroke="none">
<path d="M5277 8792 c-12 -13 -23 -66 -37 -168 -72 -535 -234 -1151 -465
-1769 -31 -81 -202 -493 -210 -503 -1 -1 -49 -15 -106 -31 -681 -191 -1254
-508 -1543 -852 -188 -222 -274 -436 -264 -653 6 -124 33 -191 108 -270 163
-172 449 -151 740 55 94 66 312 283 412 409 205 259 452 665 649 1064 49 98
90 180 92 182 2 2 77 20 168 39 189 41 446 79 634 95 136 12 591 16 624 5 18
-6 18 -9 -11 -73 -59 -131 -200 -480 -277 -687 -162 -435 -253 -747 -302
-1036 -18 -111 -19 -123 -4 -145 16 -25 57 -32 84 -15 8 5 23 64 37 151 36
219 120 521 234 845 94 268 355 914 380 939 10 10 169 -13 315 -46 203 -45
442 -138 562 -218 62 -42 137 -114 174 -167 25 -36 35 -43 63 -43 38 0 59 19
59 54 0 31 -18 55 -100 139 -173 176 -464 300 -877 372 -77 14 -141 27 -143
29 -11 10 275 586 387 782 236 409 416 599 602 633 117 21 219 -34 275 -151
98 -199 142 -447 243 -1363 71 -647 102 -895 135 -1102 64 -395 129 -603 217
-699 124 -134 275 -117 407 48 95 118 190 332 455 1020 269 700 508 1184 744
1508 123 168 295 316 412 355 37 12 52 23 56 40 15 62 -22 90 -91 70 -336
-102 -705 -642 -1103 -1615 -77 -190 -91 -224 -187 -475 -241 -628 -341 -831
-443 -900 -49 -34 -101 -33 -141 1 -133 112 -207 486 -341 1722 -120 1113
-177 1377 -330 1545 -72 79 -148 111 -260 110 -60 0 -102 -7 -143 -21 -176
-64 -367 -262 -555 -577 -104 -174 -259 -474 -361 -696 -52 -112 -99 -209
-105 -215 -8 -8 -61 -9 -181 -4 -354 15 -713 -16 -1118 -96 -71 -14 -130 -24
-132 -22 -2 2 23 66 56 143 254 596 458 1293 563 1920 37 218 43 316 22 338
-23 22 -59 22 -79 -1z m-866 -2759 c-315 -623 -656 -1094 -958 -1326 -225
-172 -475 -214 -597 -99 -126 119 -126 330 1 573 171 326 535 608 1090 843
182 77 489 183 536 185 14 1 -1 -35 -72 -176z"/>
</g>
</svg>
